<svg height="682pt" viewBox="-21 -68 682.66706 682" width="682pt" xmlns="http://www.w3.org/2000/svg"><path d="m311.582031 543.800781c-5.894531 0-11.855469-.449219-17.863281-1.351562-42.8125-6.460938-76.867188-34.730469-91.09375-75.628907l-98.386719-282.867187-54.199219 39.132813-50.039062-78.910157 165.082031-121.050781c20.441407-15.371094 47.03125-19.488281 71.164063-11 24.179687 8.503906 42.363281 28.417969 48.640625 53.265625l64.429687 254.957031c1.375 3.246094 4.140625 4.128906 5.710938 4.367188 1.667968.25 4.800781.203125 7.121094-2.953125l81.875-111.296875c6-8.15625 7.039062-18.507813 2.789062-27.695313-4.253906-9.1875-12.828125-15.085937-22.925781-15.78125l-74.132813-5.128906 7.359375-22.75c.429688-1.316406 10.71875-32.660156 34.429688-65.449219 32.324219-44.710937 74.28125-70.886718 121.328125-75.703125 30.601562-3.125 58.523437 4.128907 80.761718 20.976563 21.40625 16.226562 31.847657 36.539062 36.171876 47.207031 10.207031 25.207031 12.816406 53.652344 7.527343 82.265625-4.871093 26.402344-16.269531 52.34375-32.949219 75.019531l-201.300781 273.636719c-22.0625 29.988281-55.382812 46.734375-91.5 46.738281zm0 0"/></svg>